# xmcd CD database file
#
# Track frame offsets:
#	150
#	14023
#	28264
#	40687
#	55882
#	68547
#	81153
#	92366
#	103492
#	117352
#	130510
#	146435
#	160363
#	174757
#	191078
#	206049
#	220238
#	231675
#
# Disc length: 3238 seconds
#
# Revision: 2
# Processed by: cddbd v1.5.2PL0 Copyright (c) Steve Scherf et al.
# Submitted via: CDex 1.70beta2
#
DISCID=010ca412
DTITLE=Count Basie - Jumpin' His Legendary Tunes
DYEAR=2007
DGENRE=Jazz
TTITLE0=One O'Clock Jump
TTITLE1=Bluebird Blues
TTITLE2=Neal's Deal
TTITLE3=Harvard Blues
TTITLE4=Tootie
TTITLE5=Nobody Knows
TTITLE6=Golden Bullet
TTITLE7=Little Pony
TTITLE8=Take Me Back, Baby
TTITLE9=Every Tub
TTITLE10=New Basie Blues
TTITLE11=I'm Gonna Move To The Outskirts Of Town
TTITLE12=Blee Blop Blues
TTITLE13=Why Not?
TTITLE14=I'll Remember April
TTITLE15=Robbin's Nest
TTITLE16=Little White Lies
TTITLE17=Red Bank Boogie
EXTD=YEAR: 2007
EXTT0=
EXTT1=
EXTT2=
EXTT3=
EXTT4=
EXTT5=
EXTT6=
EXTT7=
EXTT8=
EXTT9=
EXTT10=
EXTT11=
EXTT12=
EXTT13=
EXTT14=
EXTT15=
EXTT16=
EXTT17=
PLAYORDER=
